<svg xmlns="http://www.w3.org/2000/svg" viewBox="0 0 48 48" width="48" height="48"><g class="nc-icon-wrapper"><path d="M39,21a1,1,0,0,1-1-1V7a3,3,0,0,0-3-3H7A3,3,0,0,0,4,7v9a1,1,0,0,1-2,0V7A5.006,5.006,0,0,1,7,2H35a5.006,5.006,0,0,1,5,5V20A1,1,0,0,1,39,21Z" fill="#444"></path> <path d="M35,10H7a4,4,0,0,0-4,4V26a4,4,0,0,0,4,4h7.658a3,3,0,0,0,2.91-2.272l.947-3.788A2.562,2.562,0,0,1,21,22h0a2.562,2.562,0,0,1,2.485,1.94l.947,3.788A3,3,0,0,0,27.342,30H35a4,4,0,0,0,4-4V14A4,4,0,0,0,35,10Z" fill="#444"></path> <path d="M47,2a1,1,0,0,0-1-1H44a1,1,0,0,0-1,1V32h4Z" fill="#444"></path> <path d="M35.079,42.941A7.148,7.148,0,0,1,29.011,36H31a1,1,0,0,0,0-2H23a1,1,0,0,0,0,2h2.015A11.2,11.2,0,0,0,34.94,46.95,11.012,11.012,0,0,0,47,36V32H43v4A7.009,7.009,0,0,1,35.079,42.941Z" fill="#47b0ea"></path> <path d="M5.463,29.692A3.989,3.989,0,0,0,7,30H9.614l7.408-20H12.756Z" fill="#595959"></path> <path d="M37,11.82A3.991,3.991,0,0,0,33.653,10h-.244L26,30h4.266Z" fill="#595959"></path> <path d="M35,31H27.342a3.993,3.993,0,0,1-3.88-3.03l-.947-3.787a1.562,1.562,0,0,0-3.03,0l-.947,3.787A3.993,3.993,0,0,1,14.658,31H7a5.006,5.006,0,0,1-5-5V14A5.006,5.006,0,0,1,7,9H35a5.006,5.006,0,0,1,5,5V26A5.006,5.006,0,0,1,35,31ZM21,21a3.554,3.554,0,0,1,3.455,2.7l.947,3.787A2,2,0,0,0,27.342,29H35a3,3,0,0,0,3-3V14a3,3,0,0,0-3-3H7a3,3,0,0,0-3,3V26a3,3,0,0,0,3,3h7.658a2,2,0,0,0,1.94-1.515l.947-3.787A3.554,3.554,0,0,1,21,21Z" fill="#47b0ea"></path></g></svg>